<svg xmlns="http://www.w3.org/2000/svg" viewBox="0 0 41 42" width="41" height="42">
	<style>
		tspan { white-space:pre }
		.shp0 { fill: #f6f6f6 } 
		.shp1 { fill: #888888 } 
	</style>
	<g id="Our Team">
		<g id="Items">
			<g id="Item 3">
				<g id="Папка 2">
					<path id="Ellipse 4" class="shp0" d="M20.5 41.56C9.16 41.56 0 32.4 0 21.06C0 9.72 9.16 0.56 20.5 0.56C31.84 0.56 41 9.72 41 21.06C41 32.4 31.84 41.56 20.5 41.56Z" />
					<path id="Union 6" class="shp1" d="M15.75 27.91C14.34 27.83 13.06 27.38 11.93 26.55C10.47 25.47 9.54 24.04 9.16 22.26C9.02 21.62 8.97 20.98 9.02 20.33C9.12 18.79 9.66 17.42 10.64 16.23C11.66 14.98 12.95 14.16 14.51 13.77C14.9 13.66 15.29 13.6 15.69 13.58C15.92 13.57 16.15 13.56 16.38 13.56C17.59 13.57 18.73 13.88 19.78 14.49C20.48 14.89 20.87 15.3 21.05 15.42C20.33 16.13 19.64 16.82 18.94 17.51C18.42 17.06 17.84 16.65 16.84 16.49C16.63 16.46 16.43 16.45 16.23 16.45C14.22 16.45 12.54 17.9 12.09 19.8C11.98 20.23 11.95 20.67 11.99 21.1C12.14 22.87 13.33 24.32 14.93 24.84C15.33 24.96 15.75 25.03 16.18 25.03C16.28 25.03 16.38 25.02 16.48 25.02C17.23 24.97 17.94 24.77 18.57 24.35C19.65 23.61 20 22.47 20 22.18L16.15 22.18C16.15 22.09 16.17 20.29 16.17 19.42L16.18 19.3L22.94 19.3C23.3 21.41 22.97 23.62 21.66 25.35C20.75 26.55 19.55 27.3 18.11 27.68C17.47 27.84 16.82 27.92 16.17 27.92C16.03 27.92 15.89 27.92 15.75 27.91ZM29.08 23.86L27.26 23.86L27.19 23.86L27.19 23.79L27.21 21.36L24.78 21.36L24.7 21.36L24.7 21.28L24.72 19.46L24.72 19.39L24.79 19.39L27.22 19.39L27.24 16.96L27.24 16.89L27.31 16.89L29.14 16.89L29.2 16.89L29.2 16.96L29.18 19.39L31.62 19.39L31.69 19.39L31.69 19.46L31.68 21.28L31.68 21.36L31.6 21.36L29.17 21.36L29.15 23.79L29.15 23.86L29.08 23.86Z" />
				</g>
			</g>
		</g>
	</g>
</svg>