<svg xmlns="http://www.w3.org/2000/svg" viewBox="0 0 41 42" width="41" height="42">
	<style>
		tspan { white-space:pre }
		.shp0 { fill: #f6f6f6 } 
		.shp1 { fill: #888888 } 
	</style>
	<g id="Our Team">
		<g id="Items">
			<g id="Item 3">
				<g id="Папка 1">
					<path id="Ellipse 3" class="shp0" d="M20.5 41.56C9.16 41.56 0 32.4 0 21.06C0 9.72 9.16 0.56 20.5 0.56C31.84 0.56 41 9.72 41 21.06C41 32.4 31.84 41.56 20.5 41.56Z" />
					<path id="Union 5" fill-rule="evenodd" class="shp1" d="M15.59 29.5C13.64 29 12.47 27.72 12.16 25.75C11.93 24.3 11.91 17.56 12.33 16.1C12.87 14.19 14.15 13.07 16.08 12.75C16.95 12.61 18.66 12.56 20.39 12.56C21.99 12.56 23.61 12.6 24.58 12.66C25.76 12.72 26.85 13.1 27.72 13.94C28.56 14.74 28.99 15.74 29.1 16.88C29.22 18.23 29.31 24.62 28.91 26.12C28.37 28.08 27.1 29.24 25.11 29.56C24.37 29.68 22.37 29.75 20.37 29.75C18.32 29.75 16.28 29.68 15.59 29.5ZM16.51 14.24C15.01 14.42 14 15.34 13.76 16.83C13.51 18.42 13.51 24.33 13.7 25.52C13.89 26.75 14.59 27.6 15.82 27.95C16.49 28.13 18.49 28.2 20.45 28.2C22.25 28.2 24.02 28.14 24.69 28.07C26.2 27.9 27.2 26.97 27.44 25.47C27.69 23.95 27.69 18.44 27.55 17.02C27.39 15.51 26.47 14.51 24.97 14.28C24.23 14.17 22.45 14.12 20.67 14.12C18.96 14.12 17.26 14.16 16.51 14.24ZM16.19 21.16C16.21 18.72 18.2 16.74 20.64 16.75C23.07 16.75 25.03 18.73 25.01 21.16C24.99 23.6 23 25.57 20.56 25.57C18.13 25.57 16.17 23.6 16.19 21.16ZM17.74 21.13C17.72 22.7 18.97 24 20.55 24.01L20.57 24.01C22.14 24.01 23.42 22.75 23.45 21.19C23.47 19.6 22.22 18.32 20.65 18.31L20.62 18.31C19.06 18.31 17.77 19.56 17.74 21.13ZM24.19 16.58C24.19 16.01 24.65 15.55 25.22 15.55L25.23 15.55C25.8 15.55 26.26 16.01 26.25 16.59C26.25 17.15 25.78 17.61 25.21 17.61C24.64 17.61 24.18 17.15 24.19 16.58Z" />
				</g>
			</g>
		</g>
	</g>
</svg>