<svg xmlns="http://www.w3.org/2000/svg" viewBox="0 0 15 11" width="15" height="11">
	<style>
		tspan { white-space:pre }
		.shp0 { fill: #ffffff } 
	</style>
	<g id="Our Team">
		<g id="Title">
			<path id="Shape 93" class="shp0" d="M8.93 11.01C9.08 11.01 9.24 10.95 9.36 10.85L14.79 5.93C14.8 5.93 14.8 5.92 14.81 5.92C14.82 5.91 14.83 5.9 14.84 5.89L14.84 5.88L14.84 5.88C14.93 5.78 14.98 5.66 14.99 5.54C14.99 5.5 14.99 5.45 14.98 5.41C14.96 5.3 14.91 5.19 14.82 5.1C14.81 5.09 14.8 5.08 14.79 5.07L9.36 0.16C9.11 -0.06 8.72 -0.05 8.48 0.18C8.25 0.42 8.26 0.79 8.51 1.02L12.82 4.91L0.63 4.91C0.29 4.91 0.01 5.18 0.01 5.5C0.01 5.83 0.29 6.09 0.63 6.09L12.82 6.09L8.51 9.99C8.26 10.21 8.25 10.59 8.48 10.82C8.6 10.95 8.77 11.01 8.93 11.01Z" />
		</g>
	</g>
</svg>