<svg xmlns="http://www.w3.org/2000/svg" viewBox="0 0 7 12" width="7" height="12">
	<style>
		tspan { white-space:pre }
		.shp0 { fill: #262626 } 
	</style>
	<g id="Blog">
		<path id="Shape 21" class="shp0" d="M1.33 11.69C1.18 11.69 1.03 11.63 0.92 11.5C0.82 11.39 0.77 11.24 0.77 11.1C0.77 10.94 0.83 10.79 0.94 10.67L5.49 6.2L0.94 1.72C0.83 1.61 0.77 1.45 0.77 1.3C0.77 1.15 0.82 1.01 0.92 0.89C1.14 0.66 1.5 0.65 1.72 0.87L6.7 5.77C6.7 5.77 6.71 5.78 6.71 5.78C6.76 5.83 6.8 5.89 6.83 5.95L6.83 5.95C6.83 5.95 6.83 5.95 6.83 5.95C6.86 6.03 6.88 6.11 6.88 6.2C6.88 6.2 6.88 6.2 6.88 6.2C6.88 6.28 6.86 6.37 6.83 6.45L6.83 6.45C6.83 6.45 6.83 6.45 6.83 6.45C6.83 6.45 6.83 6.45 6.83 6.45C6.83 6.45 6.83 6.45 6.83 6.45C6.8 6.51 6.76 6.56 6.71 6.61C6.71 6.62 6.7 6.62 6.7 6.63L1.72 11.53C1.61 11.63 1.47 11.69 1.33 11.69Z" />
	</g>
</svg>