<svg xmlns="http://www.w3.org/2000/svg" viewBox="0 0 147 147" width="147" height="147">
	<style>
		tspan { white-space:pre }
		.shp0 { fill: #ffffff } 
		.shp1 { fill: #a3bbc8 } 
	</style>
	<g id="Products">
		<g id="Items">
			<g id="Item 2">
				<path id="BG" class="shp0" d="M73.5 45C85.93 45 96 55.07 96 67.5C96 79.93 85.93 90 73.5 90C61.07 90 51 79.93 51 67.5C51 55.07 61.07 45 73.5 45Z" />
				<path id="Forma 1" class="shp1" d="M83.45 74.8L78.86 70.21C78.18 71.27 77.27 72.18 76.21 72.86L80.8 77.45C81.53 78.18 82.72 78.18 83.45 77.45C84.18 76.72 84.18 75.53 83.45 74.8ZM79 65.5C79 61.36 75.64 58 71.5 58C67.36 58 64 61.36 64 65.5C64 69.64 67.36 73 71.5 73C75.64 73 79 69.64 79 65.5ZM71.5 71.12C68.4 71.12 65.87 68.6 65.87 65.5C65.87 62.4 68.4 59.87 71.5 59.87C74.6 59.87 77.12 62.4 77.12 65.5C77.12 68.6 74.6 71.12 71.5 71.12ZM67.12 65.5L68.37 65.5C68.37 63.78 69.78 62.37 71.5 62.37L71.5 61.12C69.09 61.12 67.12 63.09 67.12 65.5Z" />
			</g>
		</g>
	</g>
</svg>