<svg xmlns="http://www.w3.org/2000/svg" viewBox="0 0 147 147" width="147" height="147">
	<style>
		tspan { white-space:pre }
		.shp0 { fill: #ffffff } 
		.shp1 { fill: #a3bbc8 } 
	</style>
	<g id="Products">
		<g id="Items">
			<g id="Item 2">
				<path id="BG" class="shp0" d="M73.5 45C85.93 45 96 55.07 96 67.5C96 79.93 85.93 90 73.5 90C61.07 90 51 79.93 51 67.5C51 55.07 61.07 45 73.5 45Z" />
				<path id="Forma 1" class="shp1" d="M84.99 64.82C84.91 63.27 84.25 61.81 83.14 60.72C82.02 59.61 80.55 59 79 59C76.69 59 75.05 60.78 74.18 61.74C74.13 61.8 74.07 61.86 74.02 61.91C73.99 61.88 73.96 61.85 73.94 61.82C73.13 60.9 71.46 59 69 59C67.45 59 65.98 59.61 64.86 60.72C63.75 61.81 63.09 63.27 63.01 64.82C62.93 66.36 63.32 67.7 64.28 69.16C65.14 70.47 67.38 72.53 69.04 73.91C70.75 75.32 72.99 77 74.01 77C75.04 77 77.28 75.32 78.97 73.91C80.62 72.54 82.85 70.48 83.72 69.16C84.37 68.17 85.1 66.79 84.99 64.82ZM82.61 68.43C81.98 69.39 80.2 71.17 78.18 72.85C75.78 74.85 74.35 75.64 74.01 75.67C73.67 75.64 72.24 74.84 69.82 72.83C67.79 71.15 66.01 69.38 65.39 68.43C64.59 67.22 64.27 66.13 64.33 64.89C64.47 62.37 66.56 60.32 69 60.32C70.86 60.32 72.21 61.86 72.94 62.69C73.37 63.18 73.6 63.45 74 63.45C74.41 63.45 74.67 63.16 75.15 62.64C75.94 61.77 77.27 60.32 79 60.32C81.44 60.32 83.53 62.37 83.67 64.89C83.74 66.15 83.42 67.2 82.61 68.43Z" />
			</g>
		</g>
	</g>
</svg>