<?xml version="1.0" encoding="UTF-8"?>
<svg xmlns="http://www.w3.org/2000/svg" xmlns:xlink="http://www.w3.org/1999/xlink" width="13pt" height="13pt" viewBox="0 0 13 13" version="1.1">
<g id="surface1">
<path style="fill:#526278;" d="M 5.527344 1.699219 L 6.171875 1.136719 C 6.445312 0.894531 6.886719 0.894531 7.15625 1.136719 L 12.796875 6.070312 C 13.070312 6.308594 13.070312 6.691406 12.796875 6.929688 L 7.15625 11.863281 C 6.882812 12.105469 6.441406 12.105469 6.171875 11.863281 L 5.527344 11.300781 C 5.253906 11.058594 5.257812 10.667969 5.539062 10.429688 L 9.035156 7.515625 L 0.695312 7.515625 C 0.308594 7.515625 0 7.242188 0 6.90625 L 0 6.09375 C 0 5.757812 0.308594 5.484375 0.695312 5.484375 L 9.035156 5.484375 L 5.539062 2.570312 C 5.253906 2.332031 5.25 1.941406 5.527344 1.699219 Z M 5.527344 1.699219 "/>
</g>
</svg>
