<svg xmlns="http://www.w3.org/2000/svg" viewBox="0 0 61 64" width="61" height="64">
	<style>
		tspan { white-space:pre }
		.shp0 { fill: #a3bbc8 } 
		.shp1 { fill: #243f4d } 
	</style>
	<g id="Widgets">
		<g id="Папка 2">
			<path id="Ellipse 2" class="shp0" d="M43.5 29.62C52.82 29.62 60.37 37.18 60.37 46.5C60.37 55.82 52.82 63.37 43.5 63.37C34.18 63.37 26.62 55.82 26.62 46.5C26.62 37.18 34.18 29.62 43.5 29.62Z" />
			<path id="Shape 1" class="shp1" d="M32.15 8.01C25.18 4.46 16.79 5.82 11.26 11.39C4.84 17.88 4.2 28.21 9.76 35.44C9.96 35.69 10.26 35.83 10.55 35.83C10.77 35.83 10.98 35.76 11.17 35.61C11.6 35.27 11.68 34.64 11.34 34.2C6.39 27.78 6.96 18.58 12.67 12.82C17.59 7.86 25.05 6.65 31.25 9.81C31.74 10.06 32.34 9.86 32.59 9.37C32.84 8.87 32.64 8.26 32.15 8.01ZM40.12 16.06C39.87 15.56 39.27 15.37 38.78 15.62C38.29 15.87 38.09 16.47 38.34 16.97C41.47 23.23 40.27 30.76 35.36 35.72C29.65 41.48 20.54 42.06 14.18 37.06C13.74 36.72 13.12 36.8 12.78 37.24C12.44 37.68 12.52 38.31 12.95 38.65C16.21 41.22 20.11 42.48 24 42.48C28.64 42.48 33.27 40.68 36.77 37.15C42.29 31.57 43.64 23.1 40.12 16.06ZM37.54 12.22C37.3 11.94 37.04 11.66 36.77 11.39C36.51 11.13 36.23 10.86 35.95 10.61C35.54 10.25 34.9 10.28 34.54 10.7C34.17 11.12 34.21 11.76 34.63 12.12C34.88 12.35 35.12 12.58 35.36 12.82C35.59 13.06 35.83 13.31 36.05 13.56C36.24 13.78 36.52 13.9 36.79 13.9C37.03 13.9 37.27 13.81 37.46 13.65C37.87 13.28 37.91 12.64 37.54 12.22ZM47.58 26.08C48.25 24.97 48.25 23.6 47.58 22.5L46.27 20.33C46.09 20.04 46.03 19.7 46.08 19.37L46.47 16.86C46.67 15.58 46.15 14.31 45.11 13.55L43.08 12.05C42.81 11.86 42.62 11.57 42.54 11.24L41.94 8.77C41.64 7.51 40.68 6.54 39.44 6.24L36.99 5.64C36.67 5.56 36.38 5.37 36.18 5.1L34.7 3.04C33.95 1.99 32.69 1.47 31.42 1.67L28.94 2.06C28.61 2.11 28.27 2.05 27.99 1.87L25.83 0.55C24.74 -0.13 23.38 -0.13 22.29 0.55L20.14 1.87C19.85 2.05 19.52 2.11 19.19 2.06L16.7 1.67C15.43 1.47 14.18 1.99 13.42 3.04L11.94 5.09C11.74 5.37 11.46 5.56 11.14 5.64L8.69 6.24C7.44 6.54 6.48 7.51 6.18 8.77L5.59 11.24C5.51 11.57 5.32 11.85 5.05 12.05L3.01 13.55C1.97 14.31 1.45 15.58 1.65 16.86L2.04 19.37C2.1 19.7 2.03 20.04 1.86 20.33L0.54 22.5C-0.12 23.6 -0.12 24.97 0.54 26.08L1.86 28.25C2.03 28.54 2.1 28.88 2.04 29.21L1.65 31.72C1.45 33 1.97 34.27 3.01 35.03L5.05 36.53C5.32 36.72 5.51 37.01 5.59 37.34L6.18 39.81C6.48 41.07 7.44 42.04 8.68 42.34L9.71 42.59L2.78 58.18C2.64 58.51 2.68 58.9 2.89 59.19C3.1 59.48 3.46 59.64 3.81 59.59L9.38 58.92L12.59 63.57C12.78 63.84 13.09 64 13.41 64C13.44 64 13.47 64 13.51 64C13.86 63.96 14.18 63.74 14.32 63.4L21.4 47.48L22.29 48.03C22.84 48.37 23.45 48.54 24.06 48.54C24.67 48.54 25.29 48.37 25.83 48.03L26.76 47.46L33.84 63.4C33.99 63.74 34.3 63.96 34.66 64C34.69 64 34.72 64 34.75 64C35.08 64 35.38 63.84 35.57 63.57L38.78 58.92L44.35 59.6C44.71 59.64 45.06 59.48 45.27 59.19C45.49 58.9 45.53 58.51 45.38 58.18L38.45 42.58L39.44 42.34C40.68 42.04 41.64 41.07 41.94 39.81L42.54 37.34C42.62 37.01 42.81 36.72 43.08 36.53L45.11 35.03C46.15 34.27 46.67 33 46.47 31.72L46.08 29.21C46.03 28.88 46.09 28.54 46.27 28.25L47.58 26.08ZM13.22 60.96L10.68 57.27C10.47 56.97 10.11 56.8 9.74 56.85L5.33 57.38L11.64 43.18C11.75 43.26 11.85 43.36 11.94 43.48L13.42 45.54C13.56 45.73 13.72 45.91 13.89 46.07L10.57 53.55C10.35 54.05 10.57 54.65 11.07 54.88C11.21 54.94 11.34 54.97 11.48 54.97C11.86 54.97 12.23 54.74 12.39 54.37L15.7 46.92C16.03 46.96 16.36 46.96 16.7 46.91L19.19 46.52C19.34 46.49 19.49 46.49 19.63 46.52L13.22 60.96ZM42.84 57.38L38.42 56.85C38.06 56.8 37.7 56.97 37.49 57.27L34.94 60.96L28.53 46.51C28.66 46.49 28.8 46.49 28.94 46.52L31.42 46.91C31.77 46.97 32.12 46.96 32.46 46.91L35.77 54.37C35.94 54.74 36.3 54.97 36.68 54.97C36.82 54.97 36.96 54.94 37.09 54.88C37.59 54.65 37.82 54.05 37.59 53.55L34.26 46.04C34.42 45.89 34.57 45.72 34.7 45.54L36.18 43.48C36.28 43.35 36.39 43.24 36.52 43.15L42.84 57.38ZM45.88 25.03L44.56 27.2C44.14 27.9 43.98 28.72 44.11 29.52L44.5 32.03C44.58 32.56 44.37 33.09 43.94 33.4L41.9 34.9C41.25 35.37 40.79 36.07 40.6 36.86L40 39.34C39.88 39.86 39.48 40.26 38.97 40.38L36.52 40.98C35.73 41.17 35.04 41.64 34.57 42.3L33.09 44.35C32.78 44.79 32.26 45 31.73 44.92L29.25 44.52C28.45 44.4 27.63 44.56 26.95 44.98L24.79 46.31C24.34 46.59 23.78 46.59 23.33 46.31L21.18 44.98C20.64 44.65 20.03 44.48 19.4 44.48C19.23 44.48 19.05 44.5 18.88 44.52L16.39 44.92C15.87 45 15.35 44.79 15.04 44.35L13.55 42.3C13.08 41.64 12.39 41.17 11.6 40.98L9.15 40.38C8.64 40.26 8.24 39.86 8.12 39.34L7.53 36.86C7.34 36.07 6.87 35.37 6.22 34.9L4.19 33.4C3.76 33.09 3.54 32.56 3.62 32.03L4.02 29.52C4.14 28.72 3.98 27.9 3.56 27.2L2.25 25.03C1.97 24.57 1.97 24.01 2.25 23.55L3.56 21.38C3.98 20.68 4.14 19.86 4.02 19.06L3.63 16.54C3.54 16.02 3.76 15.49 4.19 15.18L6.22 13.68C6.87 13.2 7.34 12.5 7.53 11.71L8.12 9.24C8.24 8.72 8.64 8.32 9.15 8.2L11.6 7.6C12.39 7.41 13.08 6.94 13.56 6.28L15.04 4.23C15.35 3.79 15.87 3.58 16.39 3.66L18.88 4.05C19.67 4.18 20.49 4.02 21.18 3.59L23.33 2.27C23.78 1.99 24.34 1.99 24.79 2.27L26.95 3.59C27.63 4.02 28.45 4.18 29.25 4.05L31.73 3.66C32.26 3.58 32.78 3.79 33.09 4.23L34.57 6.28C35.04 6.94 35.74 7.41 36.52 7.6L38.97 8.2C39.48 8.32 39.88 8.72 40 9.24L40.6 11.71C40.79 12.51 41.25 13.2 41.9 13.68L43.94 15.18C44.37 15.49 44.58 16.02 44.5 16.54L44.11 19.06C43.98 19.86 44.14 20.68 44.56 21.38L45.88 23.55C46.15 24.01 46.15 24.57 45.88 25.03ZM35.75 21.15C35.53 20.47 34.95 19.99 34.24 19.91L28.23 19.19L25.7 13.64C25.4 12.99 24.77 12.58 24.06 12.58C23.35 12.58 22.72 12.99 22.42 13.64L19.89 19.19L13.88 19.91C13.17 19.99 12.6 20.47 12.38 21.15C12.16 21.84 12.35 22.56 12.87 23.05L17.31 27.2L16.13 33.19C15.99 33.89 16.26 34.6 16.84 35.02C17.16 35.25 17.53 35.37 17.9 35.37C18.2 35.37 18.5 35.29 18.78 35.13L24.06 32.15L29.34 35.13C29.96 35.49 30.71 35.44 31.28 35.02C31.86 34.6 32.13 33.89 31.99 33.19L30.81 27.2L35.25 23.05C35.78 22.56 35.97 21.84 35.75 21.15ZM29.05 26.1C28.79 26.34 28.68 26.7 28.75 27.04L29.95 33.17L24.55 30.12C24.4 30.03 24.23 29.99 24.06 29.99C23.89 29.99 23.73 30.03 23.57 30.12L18.17 33.17L19.38 27.04C19.45 26.7 19.33 26.34 19.08 26.1L14.53 21.86L20.68 21.12C21.02 21.08 21.32 20.86 21.47 20.54L24.06 14.87L26.65 20.54C26.8 20.86 27.1 21.08 27.44 21.12L33.59 21.86L29.05 26.1Z" />
		</g>
	</g>
</svg>