<?xml version="1.0" encoding="UTF-8"?>
<svg xmlns="http://www.w3.org/2000/svg" xmlns:xlink="http://www.w3.org/1999/xlink" width="10pt" height="11pt" viewBox="0 0 10 11" version="1.1">
<g id="surface1">
<path style="fill:#9a9a9a;" d="M 3.304688 6.1875 L 2.410156 6.1875 C 2.261719 6.1875 2.144531 6.070312 2.144531 5.929688 L 2.144531 5.070312 C 2.144531 4.929688 2.261719 4.8125 2.410156 4.8125 L 3.304688 4.8125 C 3.449219 4.8125 3.570312 4.929688 3.570312 5.070312 L 3.570312 5.929688 C 3.570312 6.070312 3.449219 6.1875 3.304688 6.1875 Z M 5.714844 5.929688 L 5.714844 5.070312 C 5.714844 4.929688 5.59375 4.8125 5.445312 4.8125 L 4.554688 4.8125 C 4.40625 4.8125 4.285156 4.929688 4.285156 5.070312 L 4.285156 5.929688 C 4.285156 6.070312 4.40625 6.1875 4.554688 6.1875 L 5.445312 6.1875 C 5.59375 6.1875 5.714844 6.070312 5.714844 5.929688 Z M 7.855469 5.929688 L 7.855469 5.070312 C 7.855469 4.929688 7.738281 4.8125 7.589844 4.8125 L 6.695312 4.8125 C 6.550781 4.8125 6.429688 4.929688 6.429688 5.070312 L 6.429688 5.929688 C 6.429688 6.070312 6.550781 6.1875 6.695312 6.1875 L 7.589844 6.1875 C 7.738281 6.1875 7.855469 6.070312 7.855469 5.929688 Z M 5.714844 7.992188 L 5.714844 7.132812 C 5.714844 6.992188 5.59375 6.875 5.445312 6.875 L 4.554688 6.875 C 4.40625 6.875 4.285156 6.992188 4.285156 7.132812 L 4.285156 7.992188 C 4.285156 8.132812 4.40625 8.25 4.554688 8.25 L 5.445312 8.25 C 5.59375 8.25 5.714844 8.132812 5.714844 7.992188 Z M 3.570312 7.992188 L 3.570312 7.132812 C 3.570312 6.992188 3.449219 6.875 3.304688 6.875 L 2.410156 6.875 C 2.261719 6.875 2.144531 6.992188 2.144531 7.132812 L 2.144531 7.992188 C 2.144531 8.132812 2.261719 8.25 2.410156 8.25 L 3.304688 8.25 C 3.449219 8.25 3.570312 8.132812 3.570312 7.992188 Z M 7.855469 7.992188 L 7.855469 7.132812 C 7.855469 6.992188 7.738281 6.875 7.589844 6.875 L 6.695312 6.875 C 6.550781 6.875 6.429688 6.992188 6.429688 7.132812 L 6.429688 7.992188 C 6.429688 8.132812 6.550781 8.25 6.695312 8.25 L 7.589844 8.25 C 7.738281 8.25 7.855469 8.132812 7.855469 7.992188 Z M 10 2.40625 L 10 9.96875 C 10 10.539062 9.519531 11 8.929688 11 L 1.070312 11 C 0.480469 11 0 10.539062 0 9.96875 L 0 2.40625 C 0 1.835938 0.480469 1.375 1.070312 1.375 L 2.144531 1.375 L 2.144531 0.257812 C 2.144531 0.117188 2.261719 0 2.410156 0 L 3.304688 0 C 3.449219 0 3.570312 0.117188 3.570312 0.257812 L 3.570312 1.375 L 6.429688 1.375 L 6.429688 0.257812 C 6.429688 0.117188 6.550781 0 6.695312 0 L 7.589844 0 C 7.738281 0 7.855469 0.117188 7.855469 0.257812 L 7.855469 1.375 L 8.929688 1.375 C 9.519531 1.375 10 1.835938 10 2.40625 Z M 8.929688 9.839844 L 8.929688 3.4375 L 1.070312 3.4375 L 1.070312 9.839844 C 1.070312 9.910156 1.132812 9.96875 1.207031 9.96875 L 8.792969 9.96875 C 8.867188 9.96875 8.929688 9.910156 8.929688 9.839844 Z M 8.929688 9.839844 "/>
</g>
</svg>
