<svg xmlns="http://www.w3.org/2000/svg" viewBox="0 0 37 38" width="37" height="38">
	<style>
		tspan { white-space:pre }
		.shp0 { fill: #a3bbc8 } 
	</style>
	<g id="About Us">
		<path id="Shape 1" fill-rule="evenodd" class="shp0" d="M1.98 37.96C0.89 37.96 0 37.07 0 35.97L0 8.69C0 8.45 0.1 8.22 0.27 8.05L7.74 0.51C7.91 0.33 8.14 0.24 8.38 0.24L27.47 0.24C28.56 0.24 29.44 1.13 29.44 2.23L29.44 5.1C29.44 5.61 29.04 6.01 28.54 6.01C28.04 6.01 27.64 5.61 27.64 5.1L27.64 2.23C27.64 2.14 27.56 2.06 27.47 2.06L9.28 2.06L9.28 7.61C9.28 8.71 8.4 9.6 7.31 9.6L1.81 9.6L1.81 35.97C1.81 36.06 1.88 36.14 1.98 36.14L27.47 36.14C27.56 36.14 27.64 36.06 27.64 35.97L27.64 22.07C27.64 21.56 28.04 21.16 28.54 21.16C29.04 21.16 29.44 21.56 29.44 22.07L29.44 35.97C29.44 37.07 28.56 37.96 27.47 37.96L1.98 37.96ZM3.08 7.78L7.31 7.78C7.4 7.78 7.48 7.71 7.48 7.61L7.48 3.35L3.08 7.78ZM7.06 31.49C6.56 31.49 6.16 31.08 6.16 30.58C6.16 30.08 6.56 29.67 7.06 29.67L11 29.67L12.39 24.6C12.43 24.45 12.51 24.32 12.62 24.2L12.64 24.19L7.06 24.19C6.56 24.19 6.16 23.78 6.16 23.28C6.16 22.78 6.56 22.37 7.06 22.37L14.44 22.37L19.87 16.89L7.06 16.89C6.56 16.89 6.16 16.48 6.16 15.98C6.16 15.48 6.56 15.07 7.06 15.07L21.68 15.07L30.11 6.56C31.3 5.36 33.24 5.36 34.43 6.56L35.49 7.64C36.68 8.84 36.68 10.79 35.49 11.99L18 29.63C17.89 29.74 17.76 29.82 17.61 29.87C17.61 29.87 11.92 31.46 11.91 31.46C11.88 31.47 11.68 31.49 11.68 31.49L7.06 31.49ZM12.98 29.27L15.63 28.53L13.72 26.6L12.98 29.27ZM14.54 24.85L17.37 27.7L31.8 13.14L28.97 10.29L14.54 24.85ZM31.38 7.85L30.25 9L33.08 11.85L34.21 10.7C34.7 10.21 34.7 9.41 34.21 8.92L33.15 7.85C32.91 7.61 32.59 7.48 32.27 7.48C31.95 7.48 31.63 7.61 31.38 7.85Z" />
	</g>
</svg>