<svg xmlns="http://www.w3.org/2000/svg" viewBox="0 0 43 42" width="43" height="42">
	<style>
		tspan { white-space:pre }
		.shp0 { fill: #a3bbc8 } 
	</style>
	<g id="About Us">
		<path id="Shape 1" fill-rule="evenodd" class="shp0" d="M12.9 32.7C12.9 31.38 13.2 30.14 13.73 29.02L0.51 8.58C0.28 8.22 0.32 7.74 0.62 7.44L6.94 1.02C7.11 0.85 7.34 0.76 7.57 0.76L34.92 0.76C35.16 0.76 35.38 0.85 35.55 1.02L41.87 7.44C42.17 7.74 42.22 8.22 41.98 8.58L28.76 29.03C29.29 30.14 29.59 31.38 29.59 32.7C29.59 37.37 25.85 41.17 21.25 41.17C16.65 41.17 12.9 37.37 12.9 32.7ZM14.69 32.7C14.69 36.37 17.63 39.36 21.25 39.36C24.86 39.36 27.8 36.37 27.8 32.7C27.8 29.02 24.86 26.03 21.25 26.03C17.63 26.03 14.69 29.02 14.69 32.7ZM23.24 24.47C25.02 24.91 26.59 25.94 27.71 27.35L39.58 8.99L33.24 8.99L23.24 24.47ZM14.78 27.35C15.91 25.94 17.47 24.91 19.26 24.47L9.25 8.99L2.91 8.99L14.78 27.35ZM21.23 24.22C21.24 24.22 21.24 24.22 21.25 24.22C21.25 24.22 21.26 24.22 21.26 24.22L31.11 8.99L11.38 8.99L21.23 24.22ZM3.41 7.17C3.42 7.17 9.74 7.17 9.75 7.17C9.75 7.17 32.76 7.17 32.76 7.17L39.08 7.17L34.55 2.57L7.94 2.57L3.41 7.17ZM20.66 36.09L20.66 31.19L20.13 31.19C19.64 31.19 19.24 30.78 19.24 30.28C19.24 29.78 19.64 29.38 20.13 29.38L21.55 29.38C22.04 29.38 22.44 29.78 22.44 30.28L22.44 36.09C22.44 36.59 22.04 37 21.55 37C21.06 37 20.66 36.59 20.66 36.09Z" />
	</g>
</svg>