<svg xmlns="http://www.w3.org/2000/svg" viewBox="0 0 44 40" width="44" height="40">
	<style>
		tspan { white-space:pre }
		.shp0 { fill: #a3bbc8 } 
	</style>
	<g id="About Us">
		<path id="Shape 1" fill-rule="evenodd" class="shp0" d="M43.13 15.8C43.13 18.95 40.83 21.56 37.87 21.95L37.87 29.08C37.87 29.86 37.48 30.57 36.82 30.97C36.48 31.17 36.11 31.27 35.74 31.27C35.38 31.27 35.02 31.18 34.69 30.99C28.73 27.56 22.28 25.47 15.51 24.74L19.66 36.53C19.9 37.19 19.8 37.93 19.41 38.51C19.01 39.09 18.37 39.44 17.68 39.44L12.82 39.44C11.94 39.44 11.14 38.87 10.84 38.01L5.99 24.29C4.96 23.82 4.21 22.82 4.08 21.62L2.72 21.62C1.23 21.62 0.01 20.38 0.01 18.85L0.01 12.75C0.01 11.22 1.23 9.98 2.72 9.98L4.08 9.98C4.27 8.32 5.64 7.03 7.31 7.03C7.31 7.03 13.93 7 13.99 7C21.32 6.44 28.29 4.29 34.69 0.61C35.36 0.23 36.16 0.24 36.82 0.64C37.48 1.03 37.87 1.74 37.87 2.52L37.87 9.65C40.83 10.04 43.13 12.65 43.13 15.8ZM4.05 12.12L2.72 12.12C2.37 12.12 2.1 12.4 2.1 12.75L2.1 18.85C2.1 19.2 2.37 19.48 2.72 19.48L4.05 19.48L4.05 12.12ZM7.23 22.43C7.26 22.43 12.98 22.43 12.98 22.43L12.98 9.17L7.31 9.17C6.66 9.17 6.14 9.71 6.14 10.37L6.14 21.23C6.14 21.72 6.42 22.14 6.83 22.33C6.98 22.39 7.02 22.4 7.23 22.43ZM13.23 24.57L8.31 24.57L12.79 37.28C12.8 37.29 12.81 37.3 12.82 37.3L17.68 37.3C17.69 37.3 17.69 37.3 17.7 37.29C17.71 37.27 17.71 37.27 17.71 37.26L13.23 24.57ZM35.79 2.52C35.79 2.51 35.79 2.49 35.76 2.48C35.74 2.46 35.72 2.47 35.71 2.48C29.31 6.16 22.36 8.37 15.06 9.05L15.06 22.55C22.36 23.23 29.31 25.44 35.71 29.12C35.72 29.13 35.74 29.14 35.76 29.12C35.79 29.11 35.79 29.09 35.79 29.08L35.79 2.52ZM41.05 15.8C41.05 13.83 39.68 12.19 37.87 11.81L37.87 19.79C39.68 19.41 41.05 17.77 41.05 15.8Z" />
	</g>
</svg>