<svg xmlns="http://www.w3.org/2000/svg" viewBox="0 0 127 127" width="127" height="127">
	<style>
		tspan { white-space:pre }
		.shp0 { opacity: 0.4;fill: #a3bbc8 } 
		.shp1 { fill: #a3bbc8 } 
		.shp2 { fill: #ffffff } 
	</style>
	<g id="Folder 1">
		<g id="video">
			<g id="Folder 2">
				<path id="Ellipse 11" class="shp0" d="M63.5 0C98.57 0 127 28.43 127 63.5C127 98.57 98.57 127 63.5 127C28.43 127 0 98.57 0 63.5C0 28.43 28.43 0 63.5 0Z" />
				<path id="Ellipse 11" class="shp1" d="M63 14C90.06 14 112 35.94 112 63C112 90.06 90.06 112 63 112C35.94 112 14 90.06 14 63C14 35.94 35.94 14 63 14Z" />
				<path id="Form 24" class="shp2" d="M73.68 64.74L57.64 74.54C57.14 74.84 56.56 75 55.98 75C55.5 75 55.02 74.89 54.58 74.68C53.61 74.21 53 73.29 53 72.29L53 52.7C53 51.7 53.61 50.78 54.58 50.31C55.55 49.85 56.73 49.9 57.64 50.46L73.68 60.25C74.51 60.76 75 61.6 75 62.5C75 63.4 74.51 64.24 73.68 64.74Z" />
			</g>
		</g>
	</g>
</svg>