<svg xmlns="http://www.w3.org/2000/svg" viewBox="0 0 74 60" width="74" height="60">
	<style>
		tspan { white-space:pre }
		.shp0 { fill: #a3bbc8 } 
		.shp1 { fill: #243f4d } 
	</style>
	<g id="Widgets">
		<g id="Папка 1">
			<path id="Ellipse 2" class="shp0" d="M56.5 25.62C65.82 25.62 73.37 33.18 73.37 42.5C73.37 51.82 65.82 59.37 56.5 59.37C47.18 59.37 39.62 51.82 39.62 42.5C39.62 33.18 47.18 25.62 56.5 25.62Z" />
			<path id="Shape 1" class="shp1" d="M60.64 0L3.36 0C1.51 0 0 1.51 0 3.36L0 44.5C0 46.35 1.51 47.86 3.36 47.86L25.06 47.86L24.18 54.86L20.55 54.86C19.95 54.86 19.47 55.34 19.47 55.93C19.47 56.52 19.95 57 20.55 57L43.45 57C44.05 57 44.53 56.52 44.53 55.93C44.53 55.34 44.05 54.86 43.45 54.86L39.82 54.86L38.94 47.86L60.64 47.86C62.49 47.86 64 46.35 64 44.5L64 3.36C64 1.51 62.49 0 60.64 0ZM26.34 54.86L27.22 47.86L36.78 47.86L37.66 54.86L26.34 54.86ZM61.85 44.5C61.85 45.17 61.31 45.71 60.64 45.71L3.36 45.71C2.69 45.71 2.15 45.17 2.15 44.5L2.15 3.36C2.15 2.69 2.69 2.14 3.36 2.14L60.64 2.14C61.31 2.14 61.85 2.69 61.85 3.36L61.85 44.5L61.85 44.5ZM50.33 4.57L5.66 4.57C5.06 4.57 4.58 5.05 4.58 5.64L4.58 41.07C4.58 41.66 5.06 42.14 5.66 42.14L9.09 42.14C9.69 42.14 10.17 41.66 10.17 41.07C10.17 40.48 9.69 40 9.09 40L6.73 40L6.73 6.71L50.33 6.71C50.92 6.71 51.4 6.23 51.4 5.64C51.4 5.05 50.92 4.57 50.33 4.57ZM58.34 4.57L54.91 4.57C54.32 4.57 53.83 5.05 53.83 5.64C53.83 6.23 54.32 6.71 54.91 6.71L57.27 6.71L57.27 40L13.67 40C13.08 40 12.6 40.48 12.6 41.07C12.6 41.66 13.08 42.14 13.67 42.14L58.34 42.14C58.94 42.14 59.42 41.66 59.42 41.07L59.42 5.64C59.42 5.05 58.94 4.57 58.34 4.57ZM51.47 10.29C49.62 10.29 48.11 11.79 48.11 13.64C48.11 14.21 48.25 14.75 48.5 15.22L39.9 24.31C39.47 24.11 38.99 24 38.49 24C37.59 24 36.78 24.35 36.18 24.92L28.83 21.04C28.86 20.86 28.87 20.68 28.87 20.5C28.87 18.65 27.36 17.14 25.51 17.14C23.65 17.14 22.14 18.65 22.14 20.5C22.14 21.02 22.26 21.51 22.47 21.95L14.07 30.09C13.61 29.85 13.08 29.71 12.53 29.71C10.67 29.71 9.16 31.22 9.16 33.07C9.16 34.92 10.67 36.43 12.53 36.43C14.38 36.43 15.89 34.92 15.89 33.07C15.89 32.55 15.77 32.06 15.56 31.62L23.97 23.48C24.43 23.72 24.95 23.86 25.51 23.86C26.4 23.86 27.22 23.51 27.82 22.93L35.17 26.81C35.14 26.99 35.13 27.17 35.13 27.36C35.13 29.21 36.64 30.71 38.49 30.71C40.35 30.71 41.86 29.21 41.86 27.36C41.86 26.79 41.71 26.25 41.46 25.78L50.06 16.69C50.49 16.89 50.97 17 51.47 17C53.33 17 54.84 15.49 54.84 13.64C54.84 11.79 53.33 10.29 51.47 10.29ZM12.53 34.29C11.86 34.29 11.31 33.74 11.31 33.07C11.31 32.4 11.86 31.86 12.53 31.86C13.2 31.86 13.74 32.4 13.74 33.07C13.74 33.74 13.2 34.29 12.53 34.29ZM25.51 21.71C24.84 21.71 24.29 21.17 24.29 20.5C24.29 19.83 24.84 19.29 25.51 19.29C26.18 19.29 26.73 19.83 26.73 20.5C26.73 21.17 26.18 21.71 25.51 21.71ZM38.49 28.57C37.82 28.57 37.27 28.03 37.27 27.36C37.27 26.69 37.82 26.14 38.49 26.14C39.16 26.14 39.71 26.69 39.71 27.36C39.71 28.03 39.16 28.57 38.49 28.57ZM51.47 14.86C50.8 14.86 50.25 14.31 50.25 13.64C50.25 12.97 50.8 12.43 51.47 12.43C52.14 12.43 52.69 12.97 52.69 13.64C52.69 14.31 52.14 14.86 51.47 14.86ZM51.47 19.43C50.88 19.43 50.4 19.91 50.4 20.5L50.4 36.5C50.4 37.09 50.88 37.57 51.47 37.57C52.06 37.57 52.55 37.09 52.55 36.5L52.55 20.5C52.55 19.91 52.07 19.43 51.47 19.43ZM25.51 26.29C24.92 26.29 24.44 26.76 24.44 27.36L24.44 36.5C24.44 37.09 24.92 37.57 25.51 37.57C26.1 37.57 26.58 37.09 26.58 36.5L26.58 27.36C26.58 26.76 26.1 26.29 25.51 26.29ZM38.49 33.14C37.9 33.14 37.42 33.62 37.42 34.21L37.42 36.5C37.42 37.09 37.9 37.57 38.49 37.57C39.08 37.57 39.56 37.09 39.56 36.5L39.56 34.21C39.56 33.62 39.08 33.14 38.49 33.14Z" />
		</g>
	</g>
</svg>