<svg xmlns="http://www.w3.org/2000/svg" viewBox="0 0 79 64" width="79" height="64">
	<style>
		tspan { white-space:pre }
		.shp0 { fill: #a3bbc8 } 
		.shp1 { fill: #243f4d } 
	</style>
	<g id="Widgets">
		<g id="Папка 1">
			<path id="Ellipse 2" class="shp0" d="M61.5 29.62C70.82 29.62 78.37 37.18 78.37 46.5C78.37 55.82 70.82 63.37 61.5 63.37C52.18 63.37 44.62 55.82 44.62 46.5C44.62 37.18 52.18 29.62 61.5 29.62Z" />
			<path id="Shape 1" class="shp1" d="M57.06 53.46C56.87 52.08 56.06 50.91 54.85 50.23L43.26 43.78C41.48 42.79 39.24 43.1 37.8 44.52L33.73 48.55C32.9 49.38 31.56 49.48 30.63 48.79C27.81 46.72 25.07 44.37 22.46 41.78C19.85 39.2 17.47 36.49 15.38 33.7C14.69 32.78 14.79 31.46 15.62 30.63L19.69 26.6C21.13 25.18 21.44 22.96 20.44 21.2L13.92 9.74C13.24 8.53 12.05 7.74 10.66 7.55C9.2 7.35 7.76 7.84 6.7 8.89L2.41 13.13C-0.63 16.14 -0.79 21.51 1.96 28.26C4.58 34.72 9.57 41.79 16.01 48.16C22.45 54.54 29.6 59.48 36.13 62.07C39.36 63.36 42.28 64 44.78 64C47.56 64 49.82 63.21 51.41 61.63L55.7 57.38C56.76 56.33 57.26 54.9 57.06 53.46ZM54.17 55.86L53.42 56.61L43.54 51.27C43.01 50.99 42.35 51.18 42.07 51.7C41.78 52.22 41.97 52.87 42.5 53.16L51.82 58.19L49.88 60.11C47.53 62.43 42.82 62.42 36.94 60.08C30.67 57.59 23.79 52.82 17.55 46.64C11.31 40.47 6.49 33.66 3.97 27.46C1.61 21.64 1.6 16.97 3.94 14.65L5.88 12.73L6.92 14.62C7.12 14.97 7.49 15.18 7.88 15.18C8.05 15.18 8.23 15.13 8.39 15.04C8.92 14.76 9.11 14.11 8.83 13.59L7.48 11.15L8.23 10.41C8.73 9.92 9.37 9.65 10.03 9.65C10.14 9.65 10.25 9.66 10.36 9.68C11.08 9.77 11.68 10.18 12.03 10.79L18.55 22.26C19.07 23.18 18.91 24.34 18.16 25.09L16.22 27L11.14 17.78C10.85 17.26 10.19 17.07 9.67 17.35C9.14 17.64 8.95 18.29 9.23 18.81L14.62 28.58L14.09 29.11C12.5 30.68 12.31 33.21 13.64 34.98C15.79 37.85 18.24 40.65 20.92 43.3C23.61 45.96 26.44 48.38 29.33 50.51C31.13 51.83 33.68 51.64 35.27 50.07L35.8 49.54L38.26 50.87C38.43 50.96 38.61 51 38.78 51C39.17 51 39.54 50.8 39.74 50.44C40.02 49.92 39.83 49.27 39.3 48.99L37.4 47.96L39.33 46.04C40.09 45.3 41.26 45.14 42.19 45.65L53.78 52.1C54.4 52.45 54.81 53.05 54.91 53.75C55.01 54.52 54.74 55.29 54.17 55.86ZM52.03 27.49L50.8 27.49L50.8 18.25C50.8 17.66 50.31 17.18 49.71 17.18C49.11 17.18 48.63 17.66 48.63 18.25L48.63 27.49L42.96 27.49L44.98 18.49C45.11 17.91 44.74 17.33 44.16 17.21C43.57 17.08 42.99 17.44 42.86 18.02L40.55 28.33C40.48 28.65 40.56 28.98 40.76 29.23C40.97 29.49 41.28 29.64 41.61 29.64L48.62 29.64L48.62 33.14C48.62 33.74 49.11 34.22 49.71 34.22C50.31 34.22 50.8 33.74 50.8 33.14L50.8 29.64L52.02 29.64C52.62 29.64 53.11 29.16 53.11 28.56C53.11 27.97 52.62 27.49 52.03 27.49ZM38.14 32.07L30.15 32.07C30.62 30.84 31.96 30.06 33.88 29.02C36.26 27.73 39.22 26.14 39.22 22.51C39.22 19.57 36.66 17.18 33.51 17.18C30.35 17.18 27.79 19.57 27.79 22.51C27.79 23.1 28.28 23.58 28.88 23.58C29.47 23.58 29.96 23.1 29.96 22.51C29.96 20.75 31.55 19.33 33.51 19.33C35.46 19.33 37.05 20.75 37.05 22.51C37.05 24.7 35.46 25.72 32.84 27.13C30.48 28.41 27.79 29.86 27.79 33.14C27.79 33.74 28.28 34.22 28.88 34.22L38.14 34.22C38.73 34.22 39.22 33.74 39.22 33.14C39.22 32.55 38.73 32.07 38.14 32.07ZM61.07 44.69L58.96 45.11C64.09 40.17 67 33.42 67 26.27C67 11.79 55.09 0 40.45 0C31.82 0 23.7 4.17 18.73 11.16C18.38 11.65 18.5 12.32 18.99 12.66C19.48 13 20.16 12.88 20.5 12.4C25.07 5.98 32.53 2.15 40.45 2.15C53.89 2.15 64.83 12.97 64.83 26.27C64.83 32.93 62.08 39.22 57.24 43.77L57.72 41.37C57.84 40.79 57.46 40.23 56.87 40.11C56.28 39.99 55.71 40.37 55.59 40.95L54.43 46.68C54.36 47.03 54.47 47.39 54.73 47.65C54.94 47.85 55.21 47.96 55.5 47.96C55.57 47.96 55.64 47.96 55.71 47.94L61.5 46.8C62.09 46.68 62.47 46.11 62.35 45.53C62.23 44.95 61.66 44.57 61.07 44.69ZM40.45 4.58C39.85 4.58 39.37 5.06 39.37 5.65L39.37 7.95C39.37 8.54 39.85 9.02 40.45 9.02C41.05 9.02 41.54 8.54 41.54 7.95L41.54 5.65C41.54 5.06 41.05 4.58 40.45 4.58ZM61.28 25.2L58.97 25.2C58.37 25.2 57.88 25.68 57.88 26.27C57.88 26.87 58.37 27.35 58.97 27.35L61.28 27.35C61.88 27.35 62.37 26.87 62.37 26.27C62.37 25.68 61.88 25.2 61.28 25.2ZM24.95 16.18L22.95 15.03C22.43 14.74 21.77 14.91 21.47 15.43C21.17 15.94 21.35 16.6 21.86 16.89L23.87 18.04C24.04 18.14 24.23 18.18 24.41 18.18C24.79 18.18 25.15 17.99 25.35 17.65C25.65 17.13 25.47 16.48 24.95 16.18ZM59.04 35.65L57.03 34.51C56.51 34.21 55.85 34.38 55.55 34.9C55.25 35.41 55.43 36.07 55.95 36.37L57.95 37.51C58.12 37.61 58.31 37.65 58.49 37.65C58.87 37.65 59.23 37.46 59.43 37.12C59.73 36.6 59.56 35.95 59.04 35.65ZM51.41 7.49C50.89 7.19 50.23 7.37 49.93 7.88L48.77 9.86C48.47 10.38 48.65 11.03 49.17 11.33C49.34 11.43 49.53 11.47 49.71 11.47C50.08 11.47 50.45 11.28 50.65 10.94L51.81 8.95C52.11 8.44 51.93 7.78 51.41 7.49ZM31.73 41.21C31.21 40.92 30.55 41.09 30.25 41.61L29.09 43.59C28.79 44.1 28.97 44.76 29.49 45.06C29.66 45.15 29.85 45.2 30.03 45.2C30.41 45.2 30.77 45.01 30.97 44.66L32.13 42.68C32.43 42.17 32.25 41.51 31.73 41.21ZM59.43 15.43C59.13 14.91 58.47 14.74 57.95 15.03L55.95 16.18C55.43 16.48 55.25 17.13 55.55 17.65C55.75 17.99 56.12 18.18 56.49 18.18C56.67 18.18 56.86 18.14 57.03 18.04L59.04 16.89C59.56 16.6 59.73 15.94 59.43 15.43ZM25.35 34.9C25.05 34.38 24.39 34.21 23.87 34.51L21.86 35.65C21.35 35.95 21.17 36.6 21.47 37.12C21.67 37.46 22.03 37.65 22.41 37.65C22.59 37.65 22.78 37.61 22.95 37.51L24.95 36.37C25.47 36.07 25.65 35.41 25.35 34.9ZM32.13 9.86L30.97 7.88C30.67 7.37 30.01 7.19 29.49 7.49C28.97 7.78 28.79 8.44 29.09 8.95L30.25 10.94C30.45 11.28 30.82 11.48 31.19 11.48C31.38 11.48 31.56 11.43 31.73 11.33C32.25 11.03 32.43 10.38 32.13 9.86ZM51.81 43.59L50.65 41.61C50.35 41.09 49.69 40.92 49.17 41.21C48.65 41.51 48.47 42.17 48.77 42.68L49.93 44.66C50.13 45.01 50.49 45.2 50.87 45.2C51.05 45.2 51.24 45.15 51.41 45.06C51.93 44.76 52.11 44.1 51.81 43.59Z" />
		</g>
	</g>
</svg>