<svg xmlns="http://www.w3.org/2000/svg" viewBox="0 0 73 52" width="73" height="52">
	<style>
		tspan { white-space:pre }
		.shp0 { fill: #a3bbc8 } 
		.shp1 { fill: #243f4d } 
	</style>
	<g id="Widgets">
		<g id="Папка 2">
			<path id="Ellipse 2" class="shp0" d="M55.5 17.62C64.82 17.62 72.37 25.18 72.37 34.5C72.37 43.82 64.82 51.37 55.5 51.37C46.18 51.37 38.62 43.82 38.62 34.5C38.62 25.18 46.18 17.62 55.5 17.62Z" />
			<path id="Shape 1" class="shp1" d="M59.52 16.96L57.86 10.41C58.32 10.31 58.66 9.91 58.66 9.44L58.66 8.38C58.66 6.09 56.77 4.22 54.45 4.22L46.9 4.22L46.9 2.05C46.9 0.92 45.97 0 44.83 0L6.35 0C5.2 0 4.28 0.92 4.28 2.05L4.28 20C4.28 20.55 4.72 20.99 5.28 20.99C5.83 20.99 6.28 20.55 6.28 20L6.28 2.05C6.28 2.01 6.31 1.98 6.35 1.98L44.83 1.98C44.86 1.98 44.89 2.01 44.89 2.05L44.89 20C44.89 20.55 45.34 20.99 45.9 20.99C46.45 20.99 46.9 20.55 46.9 20L46.9 18.88L58.72 18.88C58.72 18.88 58.72 18.88 58.72 18.88C58.72 18.88 58.72 18.88 58.72 18.88C60.18 18.88 61.41 19.82 61.84 21.12L58.72 21.12C58.17 21.12 57.72 21.57 57.72 22.11L57.72 24.22C57.72 25.93 59.13 27.33 60.86 27.33L62 27.33L62 31.68L59.38 31.68C58.51 29.23 56.15 27.46 53.38 27.46C50.6 27.46 48.24 29.23 47.38 31.68L46.9 31.68L46.9 24.22C46.9 23.68 46.45 23.23 45.9 23.23C45.34 23.23 44.89 23.68 44.89 24.22L44.89 31.68L24.1 31.68C23.24 29.23 20.88 27.46 18.1 27.46C15.33 27.46 12.97 29.23 12.11 31.68L6.35 31.68C6.31 31.68 6.28 31.65 6.28 31.62L6.28 29.44L10.62 29.44C11.18 29.44 11.62 29 11.62 28.45C11.62 27.9 11.18 27.46 10.62 27.46L1 27.46C0.45 27.46 0 27.9 0 28.45C0 29 0.45 29.44 1 29.44L4.28 29.44L4.28 31.62C4.28 32.74 5.2 33.66 6.35 33.66L11.76 33.66C11.76 33.69 11.76 33.71 11.76 33.73C11.76 37.19 14.6 40 18.1 40C21.6 40 24.45 37.19 24.45 33.73C24.45 33.71 24.45 33.69 24.45 33.66L47.03 33.66C47.03 33.69 47.03 33.71 47.03 33.73C47.03 37.19 49.88 40 53.38 40C56.88 40 59.72 37.19 59.72 33.73C59.72 33.71 59.72 33.69 59.72 33.66L63 33.66C63.55 33.66 64 33.22 64 32.67L64 22.11C64 19.5 62.05 17.34 59.52 16.96ZM46.9 6.2L54.45 6.2C55.66 6.2 56.65 7.18 56.65 8.38L56.65 8.45L46.9 8.45L46.9 6.2ZM46.9 16.9L46.9 10.43L55.8 10.43L57.44 16.9L46.9 16.9L46.9 16.9ZM18.1 38.02C15.71 38.02 13.76 36.09 13.76 33.73C13.76 31.36 15.71 29.44 18.1 29.44C20.5 29.44 22.45 31.36 22.45 33.73C22.45 36.09 20.5 38.02 18.1 38.02ZM53.38 38.02C50.98 38.02 49.04 36.09 49.04 33.73C49.04 31.36 50.98 29.44 53.38 29.44C55.77 29.44 57.72 31.36 57.72 33.73C57.72 36.09 55.77 38.02 53.38 38.02ZM62 25.35L60.86 25.35C60.23 25.35 59.72 24.84 59.72 24.22L59.72 23.1L62 23.1L62 25.35L62 25.35ZM18.1 31.68C16.96 31.68 16.03 32.6 16.03 33.73C16.03 34.86 16.96 35.78 18.1 35.78C19.25 35.78 20.18 34.86 20.18 33.73C20.18 32.6 19.25 31.68 18.1 31.68ZM53.38 31.68C52.24 31.68 51.31 32.6 51.31 33.73C51.31 34.86 52.24 35.78 53.38 35.78C54.52 35.78 55.45 34.86 55.45 33.73C55.45 32.6 54.52 31.68 53.38 31.68ZM41.62 27.46L26.66 27.46C26.1 27.46 25.65 27.9 25.65 28.45C25.65 29 26.1 29.44 26.66 29.44L41.62 29.44C42.17 29.44 42.62 29 42.62 28.45C42.62 27.9 42.17 27.46 41.62 27.46ZM15.97 23.23L3.14 23.23C2.59 23.23 2.14 23.68 2.14 24.22C2.14 24.77 2.59 25.21 3.14 25.21L15.97 25.21C16.52 25.21 16.97 24.77 16.97 24.22C16.97 23.68 16.52 23.23 15.97 23.23ZM34.85 9.79C34.46 9.41 33.82 9.41 33.43 9.79L24.52 18.6L19.88 14.02C19.49 13.63 18.86 13.63 18.46 14.02C18.07 14.41 18.07 15.03 18.46 15.42L23.81 20.7C24 20.89 24.26 20.99 24.52 20.99C24.77 20.99 25.03 20.89 25.23 20.7L34.85 11.19C35.24 10.81 35.24 10.18 34.85 9.79Z" />
		</g>
	</g>
</svg>