<?xml version="1.0" encoding="UTF-8"?>
<svg xmlns="http://www.w3.org/2000/svg" xmlns:xlink="http://www.w3.org/1999/xlink" width="10pt" height="11pt" viewBox="0 0 10 11" version="1.1">
<g id="surface1">
<path style=" stroke:none;fill-rule:nonzero;fill:rgb(0%,0%,0%);fill-opacity:1;" d="M 7 6.53125 C 6.359375 6.53125 6.050781 6.875 5 6.875 C 3.949219 6.875 3.644531 6.53125 3 6.53125 C 1.34375 6.53125 0 7.824219 0 9.417969 L 0 9.96875 C 0 10.539062 0.480469 11 1.070312 11 L 8.929688 11 C 9.519531 11 10 10.539062 10 9.96875 L 10 9.417969 C 10 7.824219 8.65625 6.53125 7 6.53125 Z M 8.929688 9.96875 L 1.070312 9.96875 L 1.070312 9.417969 C 1.070312 8.394531 1.9375 7.5625 3 7.5625 C 3.324219 7.5625 3.855469 7.90625 5 7.90625 C 6.152344 7.90625 6.671875 7.5625 7 7.5625 C 8.0625 7.5625 8.929688 8.394531 8.929688 9.417969 Z M 5 6.1875 C 6.773438 6.1875 8.214844 4.800781 8.214844 3.09375 C 8.214844 1.386719 6.773438 0 5 0 C 3.226562 0 1.785156 1.386719 1.785156 3.09375 C 1.785156 4.800781 3.226562 6.1875 5 6.1875 Z M 5 1.03125 C 6.179688 1.03125 7.144531 1.957031 7.144531 3.09375 C 7.144531 4.230469 6.179688 5.15625 5 5.15625 C 3.820312 5.15625 2.855469 4.230469 2.855469 3.09375 C 2.855469 1.957031 3.820312 1.03125 5 1.03125 Z M 5 1.03125 "/>
</g>
</svg>
